<?xml version="1.0" encoding="UTF-8" standalone="no"?>
<!-- Created with Inkscape (http://www.inkscape.org/) -->

<svg
   version="1.0"
   width="240"
   height="240"
   id="svg7107"
   sodipodi:version="0.32"
   inkscape:version="1.2.2 (1:1.2.2+202212051550+b0a8486541)"
   sodipodi:docname="College_of_St_Hild_Durham_shell.svg"
   inkscape:output_extension="org.inkscape.output.svg.inkscape"
   xmlns:inkscape="http://www.inkscape.org/namespaces/inkscape"
   xmlns:sodipodi="http://sodipodi.sourceforge.net/DTD/sodipodi-0.dtd"
   xmlns="http://www.w3.org/2000/svg"
   xmlns:svg="http://www.w3.org/2000/svg"
   xmlns:rdf="http://www.w3.org/1999/02/22-rdf-syntax-ns#"
   xmlns:cc="http://creativecommons.org/ns#"
   xmlns:dc="http://purl.org/dc/elements/1.1/">
  <defs
     id="defs3171" />
  <metadata
     id="metadata507">
    <rdf:RDF>
      <cc:Work
         rdf:about="">
        <dc:format>image/svg+xml</dc:format>
        <dc:type
           rdf:resource="http://purl.org/dc/dcmitype/StillImage" />
        <dc:title />
      </cc:Work>
    </rdf:RDF>
  </metadata>
  <sodipodi:namedview
     inkscape:window-height="1145"
     inkscape:window-width="1920"
     inkscape:pageshadow="2"
     inkscape:pageopacity="0.0"
     guidetolerance="10.0"
     gridtolerance="10.0"
     objecttolerance="10.0"
     borderopacity="1.0"
     bordercolor="#666666"
     pagecolor="#ffffff"
     id="base"
     showgrid="false"
     inkscape:zoom="4"
     inkscape:cx="113.75"
     inkscape:cy="133.125"
     inkscape:window-x="0"
     inkscape:window-y="31"
     inkscape:current-layer="ammonite"
     inkscape:window-maximized="1"
     inkscape:showpageshadow="0"
     inkscape:pagecheckerboard="1"
     inkscape:deskcolor="#d1d1d1" />
  <g
     id="ammonite"
     inkscape:groupmode="layer"
     transform="matrix(4,0,0,4,-638.45159,-1315.8988)">
    <path
       d="m 173.59464,335.91531 c -7.26715,8.07657 -9.83576,13.89941 -9.13383,20.55922 -0.78375,3.64597 -1.69869,5.70798 1.89381,13.47479 2.24953,5.10054 5.19866,7.87548 10.23665,11.7297 8.71856,4.95177 13.00101,4.30317 17.71354,3.74092 10.86126,-1.0151 11.9354,-5.51967 14.87888,-8.19824 7.48394,-8.42765 6.47476,-13.93176 5.41,-18.68216 -0.74676,-7.18618 -5.7906,-10.02464 -9.1551,-12.65013 -4.50771,-2.91726 -6.95751,-2.74347 -14.46973,-2.57099 -2.60545,-3.91378 -4.80222,-8.31314 -7.67023,-11.37629 -3.42186,1.21994 -4.49743,2.01562 -9.70399,3.97318 z"
       fill="#fff"
       id="slimak_tlo"
       inkscape:connector-curvature="0"
       sodipodi:nodetypes="ccccccccccc" />
    <path
       d="m 212.8711,373.81978 c 1.22705,-2.20253 1.67471,-3.31031 1.58181,-3.91415 -0.0712,-0.46318 0.21065,-1.56485 0.6265,-2.44812 0.77946,-1.65564 1.31407,-4.66224 0.87821,-4.93892 -0.13558,-0.086 -0.26157,-0.94887 -0.27997,-1.91735 -0.0184,-0.96847 -0.20808,-2.23366 -0.42148,-2.8115 -0.21345,-0.57782 -0.54079,-1.79649 -0.7275,-2.70812 -0.39031,-1.90597 -1.61153,-3.91971 -2.85622,-4.70982 -0.47245,-0.29991 -1.10666,-0.96997 -1.40935,-1.48903 -0.70798,-1.21406 -7.14759,-5.59994 -8.06632,-5.49381 -0.34211,0.0396 -1.51565,-0.26363 -2.60788,-0.67366 -1.40252,-0.5265 -2.38754,-0.6516 -3.35322,-0.42584 -0.75205,0.17583 -1.80141,0.15223 -2.33189,-0.0525 -0.53051,-0.20466 -1.10797,-0.30255 -1.28326,-0.21753 -0.91274,0.44278 -3.36492,-2.43046 -5.03236,-5.89642 -1.3988,-2.90752 -4.44712,-5.1453 -6.63238,-4.86883 -0.95274,0.12054 -3.18495,1.63307 -3.79129,2.56899 -0.16245,0.25073 -0.80541,0.53294 -1.42879,0.62728 -0.6234,0.0943 -1.24895,0.35337 -1.39013,0.57576 -0.14116,0.22239 -0.57097,0.44456 -0.95516,0.49359 -1.39678,0.17852 -2.5543,1.09583 -2.69927,2.13913 -0.1023,0.73607 -0.7241,1.69635 -2.65661,4.1028 -1.72691,2.15038 -2.55775,3.40087 -2.63297,3.96283 -0.26266,1.96243 -0.52799,2.90764 -1.25802,4.48166 -0.99717,2.14988 -1.28792,3.86971 -0.80028,4.73377 0.21187,0.37652 0.26678,0.87206 0.12096,1.10178 -0.1458,0.2297 -0.0944,0.72003 0.11413,1.08962 0.20823,0.36978 0.17568,1.32347 -0.0731,2.11975 -0.3083,0.98679 -0.27479,2.22588 0.10517,3.89154 0.30663,1.34406 0.72429,3.38421 0.92811,4.53364 0.28328,1.59748 0.65561,2.38396 1.58032,3.3381 0.66535,0.68649 1.49531,2.0665 1.84431,3.06667 0.70568,2.02215 0.58684,1.88695 2.95279,3.35948 1.17204,0.72945 1.91578,1.44553 2.36079,2.27296 0.74039,1.37592 1.60161,2.01568 3.08664,2.29145 0.56767,0.1054 2.09448,0.84244 3.39293,1.63782 1.45186,0.88936 2.86798,1.51732 3.67802,1.63094 1.85178,0.25978 4.76168,1.01284 5.33901,1.38174 0.26727,0.17076 0.60542,0.21919 0.75141,0.10755 0.146,-0.11162 1.23574,-0.21746 2.42167,-0.23522 3.08955,-0.0462 8.17277,-1.06641 8.59018,-1.72395 0.19476,-0.30682 0.86817,-0.65598 1.49645,-0.77586 1.36847,-0.26119 3.79013,-1.74135 4.38682,-2.68134 0.23568,-0.37131 0.6325,-0.72083 0.88177,-0.77673 0.49327,-0.11067 3.48068,-2.79981 3.71417,-3.3434 0.0791,-0.1842 0.91397,-1.71729 1.85522,-3.40684 z m -1.22827,-0.70083 c -0.88109,1.38803 -1.72471,1.2537 -3.38459,-0.53886 -0.72317,-0.78097 -2.01428,-1.98386 -2.86914,-2.67308 -1.73337,-1.39749 -2.01061,-2.18019 -1.08382,-3.05981 0.89403,-0.84849 3.34018,-0.17843 6.37015,1.74496 1.99293,1.26509 2.41208,1.6569 2.39087,2.23493 -0.0141,0.3855 -0.19906,0.83652 -0.41093,1.00225 -0.21185,0.16571 -0.66748,0.74605 -1.01254,1.28961 z m -4.13657,5.23837 c -1.07225,0.52812 -1.22949,0.50752 -1.7835,-0.23369 -0.33417,-0.44707 -0.67217,-1.01124 -0.75096,-1.25378 -0.21096,-0.64857 -2.50511,-3.65161 -3.05785,-4.00272 -0.82672,-0.52517 -0.75938,-1.59506 0.13718,-2.17948 0.7055,-0.45985 0.96117,-0.40171 2.47027,0.56159 2.51145,1.60313 5.09067,5.07103 4.48168,6.02582 -0.17647,0.27667 -0.85002,0.76369 -1.49678,1.08223 z m 3.45083,-11.22578 c -0.4104,-0.26051 -1.78677,-0.86459 -3.05864,-1.34236 -4.77469,-1.7937 -2.22521,-2.96361 3.33877,-1.5321 2.10692,0.54206 2.84276,0.3007 2.95058,1.14418 0.4751,1.00313 0.65074,1.388 -0.80088,1.77666 -1.08304,0.27486 -1.94984,0.25832 -2.42983,-0.0464 z m -7.9093,14.75471 c -1.18554,0.4407 -1.7069,-0.25201 -2.50146,-3.32358 -0.41754,-1.61417 -1.02229,-3.38605 -1.34388,-3.93751 -0.32162,-0.55145 -0.52014,-1.10444 -0.44111,-1.22887 0.2824,-0.4449 1.30135,-0.47493 1.95861,-0.0577 1.00502,0.63798 3.43975,4.16817 3.7894,5.49435 0.33977,1.28876 -0.2978,2.62074 -1.46156,3.05332 z m 7.05154,-18.80884 c -1.96266,-0.21726 -3.6627,-0.45481 -3.77784,-0.52791 -0.11509,-0.0731 0.0759,-0.29391 0.42459,-0.49068 0.96178,-0.54282 5.7829,-0.48711 6.67163,0.0771 1.53821,0.97644 0.26375,1.33804 -3.31838,0.94154 z m -11.51281,20.97099 c -1.21881,0.20918 -1.74724,-0.566 -1.65805,-2.43229 0.0411,-0.86061 -0.11174,-2.90809 -0.33962,-4.54997 -0.26131,-1.88237 -0.24703,-3.02262 0.0386,-3.08644 1.52654,-0.34101 4.21288,7.74341 3.13986,9.44932 -0.16163,0.25694 -0.69301,0.53568 -1.18083,0.61936 z m 14.50044,-23.69632 c -1.07314,0.36051 -6.87486,0.89842 -7.23364,0.67068 -0.75389,-0.47856 0.40009,-1.11497 3.78348,-2.08656 3.63334,-1.04337 4.15621,-1.04621 4.3846,-0.0239 0.16378,0.73315 -0.11652,1.16497 -0.93444,1.43975 z m -18.94568,24.71276 c -1.17847,0.26327 -1.58139,-0.50471 -1.42773,-2.72129 0.0842,-1.21527 0.23726,-2.5278 0.33999,-2.91675 0.10277,-0.38895 0.18718,-1.5273 0.18761,-2.52968 8e-4,-1.83564 0.48342,-2.67101 1.25876,-2.17883 0.56399,0.35803 1.3074,4.52005 1.22327,6.84847 -0.0725,2.00675 -0.65309,3.29059 -1.58193,3.49809 z m 15.53614,-27.49181 c -4.39189,1.50571 -5.92811,1.32856 -5.7798,-0.66642 0.0552,-0.74254 2.2286,-2.81029 3.21337,-3.05715 0.24185,-0.0606 0.57867,-0.32914 0.74852,-0.59668 0.5373,-0.84643 2.43713,-1.29518 3.26315,-0.77086 0.95204,0.60435 1.55412,2.86724 0.99603,3.74605 -0.22674,0.35719 -1.32532,0.96246 -2.44125,1.34508 z m -9.89988,10.58852 c -1.04223,-0.84175 -0.52252,-1.65085 0.68416,-1.06506 0.92413,0.44864 1.22905,1.43992 0.49346,1.60424 -0.21974,0.0491 -0.74966,-0.19354 -1.17762,-0.53918 z m 1.04924,-2.33008 c -1.99141,-0.57196 -2.15021,-1.32199 -0.37247,-1.75929 1.88777,-0.46439 3.24664,0.53385 2.26485,1.66373 -0.29994,0.34518 -0.91514,0.37627 -1.89238,0.0956 z m -11.12525,19.32267 c -0.49756,0.11114 -1.5304,-0.0612 -2.29522,-0.38294 -1.86145,-0.78314 -1.9775,-1.74714 -0.54911,-4.56151 0.58281,-1.14837 1.3803,-2.85352 1.77216,-3.78926 0.82811,-1.97742 1.30198,-2.41879 2.31089,-2.15227 0.95065,0.25115 1.23714,2.19854 0.90353,6.14139 -0.27621,3.26396 -0.81039,4.44705 -2.14225,4.74459 z m 8.22356,-15.36289 c -1.12767,-1.00205 -1.2031,-1.212 -0.5971,-1.66205 0.93692,-0.6958 2.46292,1.06252 1.81205,2.08788 -0.20143,0.31728 -0.49416,0.21465 -1.21495,-0.42583 z m 3.63067,-7.01789 c -1.53781,0.15569 -2.36342,-0.38653 -1.8412,-1.20921 0.53391,-0.84108 1.89229,-1.18772 2.68425,-0.685 1.26165,0.80086 0.85138,1.72264 -0.84305,1.89421 z m -5.0321,8.94208 c -0.4463,-0.006 -1.03525,-1.55671 -0.75725,-1.99468 0.23543,-0.37087 1.19016,0.33911 1.33643,0.99384 0.15803,0.70741 -0.0157,1.00761 -0.57918,1.00084 z m 10.01382,-19.08178 c -2.65909,2.25721 -3.4081,2.56284 -4.52482,1.84629 -1.55752,-0.9994 -1.66059,-2.31514 -0.34358,-4.3859 1.46144,-2.29782 4.66261,-3.02395 6.2668,-1.42149 1.48333,1.48175 1.46661,1.52906 -1.3984,3.9611 z m -12.96414,19.59109 c -0.61026,-0.12321 -0.79208,-1.67536 -0.289,-2.46783 0.41322,-0.65096 0.94484,-0.33501 1.24128,0.73774 0.2738,0.9907 -0.2151,1.87893 -0.95228,1.73009 z m 7.12174,-12.6047 c -2.48061,0.91561 -3.07911,-0.42417 -0.6707,-1.50139 1.40874,-0.63015 2.17332,-0.58433 2.33509,0.13977 0.12259,0.54871 -0.21893,0.82812 -1.66439,1.36162 z m -3.89611,6.17313 c -0.75595,-0.15261 -1.6477,-1.55989 -1.31779,-2.0796 0.30195,-0.47571 1.73561,-0.0936 2.25062,0.59995 0.45008,0.60605 -0.19462,1.62868 -0.93283,1.47965 z m -2.95379,0.78724 c -0.56809,-0.87162 -0.19842,-1.53913 0.6648,-1.20038 0.71848,0.28192 1.00801,1.77758 0.37157,1.91977 -0.34206,0.0764 -0.66275,-0.14621 -1.03637,-0.71939 z m 3.07566,-4.33435 c -0.78433,-0.35392 -0.7073,-0.7594 0.18204,-0.95808 0.85555,-0.19113 1.43719,0.31561 0.9535,0.83072 -0.23206,0.24718 -0.74306,0.30449 -1.13554,0.12736 z m -6.01467,9.63488 c -0.76999,-0.15544 -1.0443,-1.2521 -0.51984,-2.07831 0.30094,-0.47407 0.60784,-0.58858 0.96675,-0.36074 1.08538,0.68897 0.72149,2.67493 -0.44691,2.43905 z m -8.13273,11.35928 c -0.77475,0.26065 -1.01125,0.18481 -1.5117,-0.48474 -1.00973,-1.35086 -0.62256,-2.45959 2.48978,-7.12998 1.1331,-1.70032 1.6943,-2.27529 2.47,-2.53063 2.34058,-0.77042 1.80431,2.77627 -1.14659,7.58335 -1.07333,1.74848 -1.58872,2.3222 -2.30149,2.562 z m 15.80943,-25.42747 c -1.71603,0.38338 -1.88731,-1.28776 -0.25688,-2.50642 0.75694,-0.56581 1.79127,-0.35123 1.96059,0.40668 0.13311,0.59588 -0.9506,1.93151 -1.70371,2.09974 z m -1.9696,2.43418 c -0.25886,0.19224 -0.5972,0.26918 -0.75186,0.17103 -0.40622,-0.25786 0.62766,-1.34988 1.15246,-1.21729 0.48082,0.12148 0.3363,0.49899 -0.4006,1.04626 z m -4.94643,7.34483 c -0.54196,-0.34401 -0.69274,-1.29785 -0.30207,-1.91311 0.38128,-0.60062 1.03196,-0.3186 1.2214,0.52941 0.17065,0.76388 -0.44235,1.6865 -0.91933,1.3837 z m 2.19229,-4.55123 c -0.2275,-0.46895 -0.0962,-0.67583 0.27817,-0.43821 0.16064,0.10206 0.20378,0.32465 0.0957,0.49483 -0.10803,0.17014 -0.27655,0.1442 -0.37391,-0.0566 z m 0.72781,-1.79219 c -0.16064,-0.10206 -0.20869,-0.31688 -0.10672,-0.47757 0.10206,-0.16064 0.3169,-0.2087 0.47759,-0.10672 0.16064,0.10206 0.2087,0.31689 0.10672,0.47758 -0.10194,0.16064 -0.31689,0.2087 -0.47757,0.10672 z m -7.39448,9.97811 c -0.92284,-0.41619 -0.93355,-1.28666 -0.0286,-2.32465 1.47429,-1.69102 2.818,-0.17411 1.44648,1.63289 -0.57804,0.7616 -0.90709,0.92215 -1.41788,0.69176 z m 7.27953,-11.69048 c -0.31404,-0.19936 -0.012,-1.60203 0.36304,-1.68582 0.13784,-0.0308 0.33583,0.11968 0.43996,0.33435 0.23285,0.48005 -0.42682,1.59027 -0.803,1.35147 z m -3.35585,3.49059 c -0.14681,-0.6571 -0.066,-0.83686 0.42407,-0.94281 0.48707,-0.10528 0.61693,0.0323 0.66416,0.70403 0.0815,1.15867 -0.83769,1.36034 -1.08823,0.23878 z m 7.77937,-12.20497 c -0.23775,-0.73596 0.5282,-3.14435 1.05413,-4.70869 0.36102,-1.07376 1.85573,-1.59476 2.81971,-0.98284 0.5458,0.34647 2.86227,0.2064 -0.17738,2.3697 -2.61053,1.85793 -2.66189,6.05178 -3.69646,3.32183 z m -3.18201,5.68145 c -0.71554,-0.14444 -0.74634,-0.99587 -0.0748,-2.06689 0.6261,-0.99854 1.46832,-0.60224 1.24769,0.5871 -0.22873,1.23289 -0.52765,1.61005 -1.17287,1.47979 z m -6.53897,9.66773 c -0.82609,-0.16677 -0.85506,-0.21435 -0.48518,-0.79699 0.34397,-0.54184 1.30086,-0.89561 1.71371,-0.63354 0.43804,0.27806 -0.65166,1.54695 -1.22851,1.43051 z m 7.53129,-14.47541 c -0.53468,-0.10791 -0.65732,-0.54968 -1.09251,-3.93541 -0.26629,-2.07185 -0.20452,-3.30201 0.19768,-3.93561 0.33269,-0.52407 2.5507,-0.41866 2.81876,0.13397 0.30142,0.62135 -0.57033,7.23667 -0.99516,7.55219 -0.21681,0.16106 -0.63476,0.24426 -0.92877,0.18486 z m -4.11277,7.20596 c -0.35692,-0.4806 0.19332,-1.66493 0.64136,-1.38052 0.23309,0.14797 0.15418,0.74602 -0.21052,1.59539 -0.0546,0.12726 -0.24858,0.0306 -0.43084,-0.21487 z m -14.51774,21.34927 c -1.49928,0.59551 -2.85752,0.1204 -3.35314,-1.17293 -0.53101,-1.38574 0.21044,-2.81816 2.3782,-4.59433 0.9108,-0.74627 2.16626,-1.95512 2.78992,-2.68633 1.4056,-1.648 1.94844,-1.83706 3.12695,-1.08897 1.60835,1.02097 1.51538,1.39167 -1.37449,5.48022 -2.01945,2.8571 -2.81561,3.7637 -3.56744,4.06234 z m 12.98516,-20.83096 c -0.43934,-0.27887 -0.68475,-1.57608 -0.31385,-1.65895 0.13482,-0.0301 0.48788,0.31764 0.78456,0.77279 0.53811,0.82549 0.25962,1.34975 -0.47071,0.88616 z m -0.78145,1.72774 c -0.84231,-0.17004 -1.03367,-1.14888 -0.22431,-1.1474 0.33586,6.2e-4 0.77626,0.10337 0.97866,0.22846 0.54392,0.33598 -0.0512,1.06091 -0.75435,0.91894 z m -1.78733,3.11733 c -0.60785,0.13578 -1.71033,-0.40481 -1.50031,-0.73567 0.23288,-0.36686 1.76812,-0.65176 2.16264,-0.40133 0.48758,0.3095 0.10553,0.96547 -0.66233,1.137 z m 5.12336,-8.55152 c -0.15171,-0.0963 -0.43752,-0.73555 -0.63518,-1.42053 -0.30358,-1.05202 -0.26247,-1.24769 0.26476,-1.26016 0.99439,-0.0235 1.39062,0.3892 1.22595,1.27689 -0.20415,1.1006 -0.51906,1.61731 -0.85547,1.40376 z m -8.79311,13.44713 c -0.84253,0.18821 -1.84532,-0.31744 -1.838,-0.92678 0.005,-0.43092 3.08155,-2.14815 3.44031,-1.92044 0.73744,0.46812 -0.45752,2.59145 -1.60232,2.84718 z m 6.2206,-13.59417 c -0.23939,-0.52884 -0.26821,-1.22477 -0.0639,-1.54653 0.35039,-0.55197 0.40366,-0.52969 0.94236,0.3941 0.62013,1.06348 0.60645,1.831 -0.0357,2.00414 -0.23615,0.0636 -0.59023,-0.29427 -0.84261,-0.85171 z m -3.84252,6.50785 c -0.85546,-0.1727 -0.8638,-0.87338 -0.0143,-1.20658 0.45027,-0.17664 0.8831,-0.10062 1.10144,0.19338 0.41965,0.56515 -0.24371,1.18346 -1.08708,1.0132 z m -0.57813,-2.19307 c -0.58369,-0.37052 -0.45697,-1.1512 0.18676,-1.15056 0.31046,3e-4 0.95734,0.25327 1.43755,0.56214 l 0.87307,0.56158 -1.05439,0.13676 c -0.57991,0.0752 -1.22926,0.0257 -1.44299,-0.10995 z m -2.82469,6.41212 c -1.07264,0.50769 -1.66931,0.57163 -2.19877,0.23553 -0.95571,-0.60669 -0.59109,-1.10496 1.3822,-1.88916 1.83081,-0.72758 2.4001,-0.78396 2.65295,-0.26268 0.28783,0.59347 -0.26873,1.17428 -1.83638,1.91631 z m 9.35402,-14.80562 c -0.84178,-0.16994 -2.61042,-5.55647 -2.18091,-6.64214 0.39279,-0.99282 1.69884,-1.61832 2.4214,-1.15963 0.61768,0.39208 0.85757,1.61407 0.91783,4.67569 0.049,2.48926 -0.25452,3.30853 -1.15832,3.12608 z m -3.10658,5.64798 c -0.37272,-0.2366 -1.16919,-1.73961 -1.03442,-1.95197 0.22361,-0.35226 0.69284,0.0159 1.09814,0.86148 0.31463,0.65658 0.27669,1.30659 -0.0637,1.09049 z m -1.86372,1.27606 c -0.30621,-0.19439 -0.53056,-0.70567 -0.49858,-1.13618 0.0504,-0.6789 0.14873,-0.7253 0.74036,-0.34976 0.74778,0.47468 1.10851,1.4544 0.62232,1.69021 -0.16908,0.082 -0.55792,-0.01 -0.86413,-0.2043 z m -4.97552,4.83817 c -1.99144,0.94025 -2.94603,0.95432 -3.45582,0.051 -0.77689,-1.37655 0.53484,-2.17209 3.40407,-2.06451 2.63296,0.0987 2.65065,0.78649 0.0517,2.01352 z m -6.56102,10.11871 c -3.3186,2.76802 -4.42652,3.18984 -5.90812,2.24934 -0.65944,-0.41861 -1.25603,-1.12368 -1.47374,-1.74179 -0.20116,-0.5712 -0.53003,-1.01051 -0.73084,-0.97626 -0.20079,0.0342 -0.19947,-0.0259 0.002,-0.1336 0.20219,-0.10804 0.37098,-0.45021 0.37472,-0.76106 0.008,-0.69748 1.81278,-1.81261 5.1343,-3.17312 1.3337,-0.5463 2.49407,-1.10074 2.57858,-1.23213 0.0845,-0.13135 0.71555,-0.4316 1.40233,-0.66705 1.16707,-0.40026 1.28114,-0.37065 1.74607,0.4532 0.48426,0.85804 0.3978,2.21793 -0.20826,3.2759 -0.1646,0.28729 -1.47765,1.50529 -2.91791,2.70661 z m 13.37252,-21.9885 c -1.01569,-0.64476 -1.65569,-1.62393 -2.19219,-3.354 -0.40702,-1.3125 -0.37729,-1.53803 0.22859,-1.73376 1.14701,-0.37054 1.78631,0.36289 2.40678,2.76111 0.6618,2.55805 0.58194,2.97738 -0.44318,2.32665 z m -1.60381,1.60936 c -0.4918,-0.006 -3.46632,-3.17892 -3.64884,-3.89233 -0.19742,-0.77165 0.69923,-1.4272 1.36983,-1.0015 0.6888,0.43723 3.01403,4.28827 2.79631,4.63126 -0.0931,0.14671 -0.32587,0.26491 -0.51727,0.26261 z m -1.74098,2.38459 c -1.01283,0.12945 -4.45469,-2.42794 -4.45054,-3.30684 0.002,-0.52188 0.18013,-0.79671 0.65748,-1.01714 0.52624,-0.24302 1.02823,-0.052 2.56827,0.97725 2.43869,1.62982 2.9847,3.1218 1.22479,3.34673 z m -3.64679,4.55689 c -0.83679,0.16407 -2.08011,0.24285 -2.76298,0.17507 -1.21501,-0.12062 -1.2419,-0.14593 -1.25687,-1.18286 -0.0108,-0.76717 0.12893,-1.09182 0.50723,-1.17635 0.45536,-0.1017 3.1262,0.37605 4.95159,0.88577 0.99503,0.27784 0.22577,0.97195 -1.43897,1.29837 z m 0.47065,-2.69779 c -2.54662,-0.61767 -3.6373,-1.51426 -3.02174,-2.484 0.44412,-0.69961 0.56012,-0.67869 2.75814,0.49745 1.26197,0.67528 2.36248,1.33862 2.44552,1.47413 0.42749,0.69741 -0.51074,0.91775 -2.18192,0.51242 z m -7.38662,9.43801 c -0.64311,0.41481 -1.8135,0.95108 -2.60085,1.19174 -0.78735,0.24066 -1.5388,0.60651 -1.66987,0.81303 -0.13108,0.20653 -1.05749,0.62641 -2.05872,0.93307 -2.14623,0.65742 -3.13346,0.21831 -3.53332,-1.57157 -0.25662,-1.14875 -0.22212,-1.23627 0.64183,-1.62743 0.50214,-0.22741 1.02824,-0.59482 1.16899,-0.8166 0.14078,-0.22175 0.69313,-0.47707 1.22748,-0.56728 0.53434,-0.0902 1.7452,-0.50289 2.69079,-0.91703 3.85334,-1.68765 6.06253,-1.68172 5.99765,0.0161 -0.0386,1.01006 -0.53597,1.68939 -1.86401,2.54595 z m -0.78871,-5.10447 c -0.84185,0.43307 -1.86696,0.81291 -2.27798,0.84418 -0.41103,0.0312 -1.46634,0.33813 -2.34512,0.68195 -2.09284,0.81883 -4.26357,1.14967 -4.92498,0.75064 -0.67232,-0.40561 -1.37635,-1.94124 -1.22766,-2.67777 0.23318,-1.15508 2.52817,-1.72191 7.43419,-1.83618 2.71407,-0.0632 5.05237,0.0296 5.19624,0.20622 0.41353,0.5078 -0.20025,1.1799 -1.85469,2.03096 z m 10.96515,-19.1127 c -0.77659,-0.49298 -5.52564,-8.09661 -5.51677,-8.83282 0.004,-0.26122 0.22832,-0.52463 0.5004,-0.58543 0.34123,-0.0762 1.02075,0.82906 2.19016,2.91778 0.93257,1.66552 1.78991,3.31556 1.90486,3.66689 0.1152,0.35125 0.60187,1.10985 1.08165,1.68575 0.97912,1.17547 0.88989,1.81446 -0.16031,1.14784 z m -1.47862,3.18684 c -1.13491,0.64044 -3.4917,-1.1731 -7.26407,-5.58982 -0.89437,-1.04713 -1.73362,-2.25347 -1.86498,-2.68076 -0.2288,-0.74423 -0.16443,-0.83729 1.5314,-2.21473 0.97362,-0.79082 1.92448,-1.33995 2.11302,-1.22022 0.18854,0.11967 1.46172,2.09947 2.82931,4.39953 1.3676,2.30003 2.80824,4.58823 3.20146,5.08483 0.7461,0.94219 0.58913,1.58054 -0.54612,2.22122 z m -8.29522,12.16641 c -0.83845,0.34877 -5.37841,0.54353 -8.03425,0.34469 -0.86077,-0.0644 -1.89331,-0.10086 -2.29453,-0.081 -0.61994,0.0307 -0.79556,-0.24402 -1.16964,-1.82954 -0.48418,-2.05223 -0.32797,-3.77292 0.39097,-4.30684 0.54317,-0.40341 2.70345,-0.11102 4.57741,0.61951 0.72281,0.28179 1.99736,0.7436 2.83232,1.02626 4.75252,1.60887 6.15037,3.20678 3.69772,4.22695 z m 4.25926,-7.88409 c -0.67741,0.0776 -2.93582,-0.89176 -4.91202,-2.10822 -1.90225,-1.17094 -5.31609,-4.15686 -5.53801,-4.8438 -0.25092,-0.77665 0.51873,-2.55444 1.20132,-2.77494 0.963,-0.3111 3.14956,1.43813 4.38104,3.50479 0.18951,0.31808 1.19823,1.12017 2.24154,1.78244 2.94696,1.87069 4.34984,4.24242 2.62613,4.43973 z m -2.40329,3.69875 c -0.51623,0.20255 -1.68279,-0.0577 -3.6798,-0.82105 -8.11587,-3.10201 -8.28755,-3.22135 -8.06327,-5.60378 0.31174,-3.31146 1.20236,-3.48443 4.75794,-0.92407 3.74631,2.6977 3.84806,2.76254 5.99099,3.8183 1.06826,0.52629 2.09434,1.1616 2.28016,1.41183 0.42114,0.56715 -0.28142,1.72472 -1.28602,2.11877 z m 2.11045,-7.47705 c -3.3409,-2.12074 -8.31947,-7.67358 -7.72277,-8.61356 0.37314,-0.58786 1.61376,0.28521 3.21984,2.26597 0.96013,1.1841 2.63848,3.00407 3.72968,4.04439 2.4678,2.35279 2.60753,2.52334 2.37155,2.89508 -0.10517,0.16574 -0.82443,-0.10063 -1.5983,-0.59188 z"
       fill="#000000"
       id="slimak"
       inkscape:connector-curvature="0" />
  </g>
</svg>
